<svg xmlns="http://www.w3.org/2000/svg" xmlns:xlink="http://www.w3.org/1999/xlink" width="50" zoomAndPan="magnify" viewBox="0 0 37.5 37.499999" height="50" preserveAspectRatio="xMidYMid meet" version="1.0"><defs><clipPath id="5c418b62a9"><path d="M 4.691406 4 L 32.441406 4 L 32.441406 33 L 4.691406 33 Z M 4.691406 4 " clip-rule="nonzero"/></clipPath></defs><g clip-path="url(#5c418b62a9)"><path fill="#e8e8e8" d="M 28.285156 8.796875 C 25.6875 6.152344 22.234375 4.695312 18.558594 4.695312 C 10.976562 4.695312 4.808594 10.96875 4.808594 18.671875 C 4.808594 21.136719 5.441406 23.539062 6.640625 25.660156 L 4.691406 32.902344 L 11.980469 30.957031 C 13.988281 32.070312 16.25 32.65625 18.554688 32.65625 L 18.558594 32.65625 C 26.136719 32.65625 32.441406 26.386719 32.441406 18.679688 C 32.441406 14.945312 30.878906 11.4375 28.285156 8.796875 Z M 18.558594 30.300781 C 16.503906 30.300781 14.488281 29.742188 12.738281 28.683594 L 12.320312 28.433594 L 8 29.582031 L 9.152344 25.296875 L 8.878906 24.855469 C 7.730469 23.003906 7.132812 20.871094 7.132812 18.671875 C 7.132812 12.269531 12.261719 7.058594 18.566406 7.058594 C 21.621094 7.058594 24.488281 8.265625 26.644531 10.464844 C 28.796875 12.660156 30.125 15.574219 30.117188 18.679688 C 30.117188 25.089844 24.859375 30.300781 18.558594 30.300781 Z M 24.828125 21.601562 C 24.488281 21.425781 22.796875 20.582031 22.480469 20.46875 C 22.164062 20.347656 21.9375 20.292969 21.707031 20.644531 C 21.476562 20.996094 20.820312 21.777344 20.617188 22.015625 C 20.417969 22.25 20.214844 22.28125 19.871094 22.105469 C 17.855469 21.078125 16.527344 20.273438 15.195312 17.949219 C 14.84375 17.332031 15.550781 17.375 16.207031 16.042969 C 16.316406 15.808594 16.261719 15.605469 16.175781 15.429688 C 16.089844 15.253906 15.402344 13.535156 15.117188 12.835938 C 14.835938 12.15625 14.550781 12.25 14.339844 12.238281 C 14.144531 12.226562 13.914062 12.226562 13.683594 12.226562 C 13.457031 12.226562 13.085938 12.3125 12.769531 12.660156 C 12.453125 13.011719 11.566406 13.855469 11.566406 15.574219 C 11.566406 17.292969 12.800781 18.957031 12.964844 19.191406 C 13.140625 19.421875 15.386719 22.949219 18.839844 24.464844 C 21.019531 25.421875 21.875 25.503906 22.964844 25.339844 C 23.625 25.238281 24.996094 24.496094 25.28125 23.679688 C 25.566406 22.859375 25.566406 22.160156 25.480469 22.015625 C 25.398438 21.859375 25.167969 21.769531 24.828125 21.601562 Z M 24.828125 21.601562 " fill-opacity="1" fill-rule="nonzero"/></g></svg>